<svg xmlns="http://www.w3.org/2000/svg" xmlns:xlink="http://www.w3.org/1999/xlink" width="150" zoomAndPan="magnify" viewBox="0 0 112.5 74.999997" height="100" preserveAspectRatio="xMidYMid meet" version="1.0"><defs><g/><clipPath id="9447f7d1ea"><path d="M 67.878906 2.878906 L 108.308594 2.878906 L 108.308594 58 L 67.878906 58 Z M 67.878906 2.878906 " clip-rule="nonzero"/></clipPath><clipPath id="82d3719a28"><path d="M 108.308594 47.933594 L 108.308594 57.859375 C 108.308594 57.929688 108.253906 57.988281 108.179688 57.988281 L 91.777344 57.988281 C 84.550781 57.769531 79.25 55.703125 75.730469 53.046875 C 69.902344 48.644531 68.3125 42.460938 67.890625 39.847656 C 67.882812 39.792969 67.910156 39.738281 67.960938 39.710938 C 73.527344 36.949219 76.464844 32.042969 77.347656 30.074219 C 78.953125 26.476562 79.203125 23.476562 79.261719 21.78125 L 79.261719 20.785156 C 79.261719 17.957031 78.796875 15.277344 77.882812 12.828125 C 76.945312 10.320312 75.558594 8.097656 73.757812 6.21875 C 72.613281 5.023438 71.320312 3.988281 69.894531 3.121094 C 69.78125 3.050781 69.832031 2.878906 69.960938 2.878906 L 79.714844 2.878906 C 79.789062 2.878906 79.847656 2.9375 79.847656 3.007812 L 79.847656 37.335938 C 79.847656 41.734375 82.433594 45.019531 86.308594 46.707031 C 88 47.441406 89.832031 47.804688 91.679688 47.804688 L 108.179688 47.804688 C 108.253906 47.804688 108.308594 47.863281 108.308594 47.933594 " clip-rule="nonzero"/></clipPath><clipPath id="6fff84aaa2"><path d="M 0.878906 0.878906 L 41.308594 0.878906 L 41.308594 56 L 0.878906 56 Z M 0.878906 0.878906 " clip-rule="nonzero"/></clipPath><clipPath id="b9660db865"><path d="M 41.308594 45.933594 L 41.308594 55.859375 C 41.308594 55.929688 41.253906 55.988281 41.179688 55.988281 L 24.777344 55.988281 C 17.550781 55.769531 12.25 53.703125 8.730469 51.046875 C 2.902344 46.644531 1.3125 40.460938 0.890625 37.847656 C 0.882812 37.792969 0.910156 37.738281 0.960938 37.710938 C 6.527344 34.949219 9.464844 30.042969 10.347656 28.074219 C 11.953125 24.476562 12.203125 21.476562 12.261719 19.78125 L 12.261719 18.785156 C 12.261719 15.957031 11.796875 13.277344 10.882812 10.828125 C 9.945312 8.320312 8.558594 6.097656 6.757812 4.21875 C 5.613281 3.023438 4.320312 1.988281 2.894531 1.121094 C 2.78125 1.050781 2.832031 0.878906 2.960938 0.878906 L 12.714844 0.878906 C 12.789062 0.878906 12.847656 0.9375 12.847656 1.007812 L 12.847656 35.335938 C 12.847656 39.734375 15.433594 43.019531 19.308594 44.707031 C 21 45.441406 22.832031 45.804688 24.679688 45.804688 L 41.179688 45.804688 C 41.253906 45.804688 41.308594 45.863281 41.308594 45.933594 " clip-rule="nonzero"/></clipPath><clipPath id="3cd63eb6ee"><rect x="0" width="42" y="0" height="56"/></clipPath><clipPath id="6b12f62765"><path d="M 31.578125 2.878906 L 78.828125 2.878906 L 78.828125 58 L 31.578125 58 Z M 31.578125 2.878906 " clip-rule="nonzero"/></clipPath><clipPath id="a6c5b6b921"><path d="M 78.6875 57.988281 L 65.746094 57.988281 C 63.628906 57.988281 61.566406 57.289062 59.894531 55.984375 C 55.488281 52.546875 52.902344 45.921875 51.636719 41.722656 C 51.265625 40.503906 51.011719 39.492188 50.851562 38.816406 C 50.847656 38.792969 50.832031 38.769531 50.8125 38.75 L 40.941406 30.019531 C 40.851562 29.9375 40.90625 29.789062 41.027344 29.789062 L 57.886719 29.789062 C 62.382812 29.789062 66.074219 26.171875 66.085938 21.675781 C 66.09375 19.417969 65.179688 17.371094 63.703125 15.894531 C 62.226562 14.421875 60.195312 13.511719 57.945312 13.511719 L 37.695312 13.511719 C 37.648438 13.511719 37.605469 13.484375 37.582031 13.445312 L 31.625 3.074219 C 31.578125 2.988281 31.640625 2.878906 31.738281 2.878906 L 58.320312 2.878906 C 69.769531 3.402344 76.226562 10.894531 76.226562 20.785156 L 76.226562 21.683594 C 76.132812 24.546875 75.097656 33.53125 66.035156 37.839844 C 65.246094 38.214844 64.410156 38.46875 63.550781 38.59375 C 63.476562 38.605469 63.425781 38.675781 63.445312 38.75 C 63.621094 39.542969 63.863281 40.433594 64.171875 41.382812 C 65.0625 44.136719 66.519531 47.386719 68.660156 50.152344 C 70.871094 53.015625 75.1875 55.9375 78.746094 57.742188 C 78.871094 57.804688 78.824219 57.988281 78.6875 57.988281 " clip-rule="nonzero"/></clipPath><clipPath id="9e91a0a3d8"><path d="M 0.578125 0.878906 L 47.828125 0.878906 L 47.828125 56 L 0.578125 56 Z M 0.578125 0.878906 " clip-rule="nonzero"/></clipPath><clipPath id="5a6bf0dfc1"><path d="M 47.6875 55.988281 L 34.746094 55.988281 C 32.628906 55.988281 30.566406 55.289062 28.894531 53.984375 C 24.488281 50.546875 21.902344 43.921875 20.636719 39.722656 C 20.265625 38.503906 20.011719 37.492188 19.851562 36.816406 C 19.847656 36.792969 19.832031 36.769531 19.8125 36.75 L 9.941406 28.019531 C 9.851562 27.9375 9.90625 27.789062 10.027344 27.789062 L 26.886719 27.789062 C 31.382812 27.789062 35.074219 24.171875 35.085938 19.675781 C 35.09375 17.417969 34.179688 15.371094 32.703125 13.894531 C 31.226562 12.421875 29.195312 11.511719 26.945312 11.511719 L 6.695312 11.511719 C 6.648438 11.511719 6.605469 11.484375 6.582031 11.445312 L 0.625 1.074219 C 0.578125 0.988281 0.640625 0.878906 0.738281 0.878906 L 27.320312 0.878906 C 38.769531 1.402344 45.226562 8.894531 45.226562 18.785156 L 45.226562 19.683594 C 45.132812 22.546875 44.097656 31.53125 35.035156 35.839844 C 34.246094 36.214844 33.410156 36.46875 32.550781 36.59375 C 32.476562 36.605469 32.425781 36.675781 32.445312 36.75 C 32.621094 37.542969 32.863281 38.433594 33.171875 39.382812 C 34.0625 42.136719 35.519531 45.386719 37.660156 48.152344 C 39.871094 51.015625 44.1875 53.9375 47.746094 55.742188 C 47.871094 55.804688 47.824219 55.988281 47.6875 55.988281 " clip-rule="nonzero"/></clipPath><clipPath id="c662035361"><rect x="0" width="48" y="0" height="56"/></clipPath><clipPath id="51acbc0516"><rect x="0" width="109" y="0" height="10"/></clipPath></defs><g clip-path="url(#9447f7d1ea)"><g clip-path="url(#82d3719a28)"><g transform="matrix(1, 0, 0, 1, 67, 2)"><g clip-path="url(#3cd63eb6ee)"><g clip-path="url(#6fff84aaa2)"><g clip-path="url(#b9660db865)"><path fill="#191719" d="M -35.542969 0.726562 L 41.464844 0.726562 L 41.464844 56.140625 L -35.542969 56.140625 Z M -35.542969 0.726562 " fill-opacity="1" fill-rule="nonzero"/></g></g></g></g></g></g><g clip-path="url(#6b12f62765)"><g clip-path="url(#a6c5b6b921)"><g transform="matrix(1, 0, 0, 1, 31, 2)"><g clip-path="url(#c662035361)"><g clip-path="url(#9e91a0a3d8)"><g clip-path="url(#5a6bf0dfc1)"><path fill="#f1509b" d="M 0.457031 0.726562 L 77.464844 0.726562 L 77.464844 56.140625 L 0.457031 56.140625 Z M 0.457031 0.726562 " fill-opacity="1" fill-rule="nonzero"/></g></g></g></g></g></g><path fill="#000000" d="M 27.652344 60.164062 C 28.011719 60.429688 28.351562 60.671875 28.679688 60.929688 C 28.8125 61.027344 28.957031 61.148438 28.902344 61.34375 C 28.851562 61.523438 28.671875 61.535156 28.527344 61.5625 C 27.550781 61.742188 26.59375 61.617188 25.648438 61.355469 C 25.300781 61.261719 25.199219 60.957031 25.128906 60.652344 C 25.03125 60.230469 24.886719 59.824219 24.667969 59.445312 C 24.582031 59.292969 24.464844 59.15625 24.332031 58.964844 C 24.136719 59.449219 24.167969 59.894531 24.148438 60.332031 C 24.144531 60.488281 24.144531 60.640625 24.132812 60.792969 C 24.121094 60.941406 24.078125 61.078125 23.890625 61.070312 C 23.710938 61.066406 23.621094 60.972656 23.605469 60.785156 C 23.5625 60.242188 23.515625 59.699219 23.460938 59.160156 C 23.40625 58.664062 23.246094 58.199219 22.960938 57.796875 C 22.664062 57.371094 22.730469 56.988281 23.003906 56.597656 C 23.027344 56.566406 23.050781 56.527344 23.082031 56.5 C 23.910156 55.695312 23.777344 54.808594 23.289062 53.898438 C 22.859375 53.097656 22.316406 52.367188 21.800781 51.625 C 20.578125 49.875 20.058594 47.902344 19.945312 45.804688 C 19.863281 44.222656 19.613281 42.683594 18.808594 41.300781 C 17.476562 39.011719 16.667969 36.523438 15.949219 33.996094 C 15.847656 33.636719 15.710938 33.289062 15.394531 32.996094 C 15.109375 33.609375 15.128906 34.246094 15.082031 34.859375 C 14.921875 37.089844 14.671875 39.304688 14.355469 41.515625 C 14.167969 42.839844 14.015625 44.171875 13.933594 45.511719 C 13.910156 45.953125 13.964844 46.402344 13.996094 46.847656 C 14.113281 48.5 13.796875 50.105469 13.445312 51.699219 C 13.117188 53.199219 13.175781 54.628906 13.929688 56.003906 C 14.308594 56.695312 14.386719 57.421875 13.964844 58.160156 C 13.640625 58.726562 13.746094 59.386719 13.671875 60.007812 C 13.566406 60.902344 13.191406 61.230469 12.289062 61.152344 C 12.207031 61.144531 12.121094 61.140625 12.039062 61.132812 C 11.015625 61.058594 10.621094 60.398438 11.097656 59.496094 C 11.625 58.507812 11.765625 57.433594 11.855469 56.347656 C 12.046875 54.050781 11.476562 51.859375 10.90625 49.667969 C 10.625 48.601562 10.421875 47.519531 10.433594 46.40625 C 10.4375 45.769531 10.472656 45.132812 10.703125 44.550781 C 11.128906 43.476562 11.027344 42.386719 10.925781 41.285156 C 10.765625 39.605469 10.617188 37.921875 10.441406 36.242188 C 10.308594 34.996094 10.074219 33.753906 10.007812 32.503906 C 9.902344 30.523438 10.230469 28.65625 11.773438 27.210938 C 12.023438 26.972656 12.238281 26.695312 12.457031 26.421875 C 12.96875 25.777344 13.351562 25.054688 13.402344 24.222656 C 13.480469 22.988281 13.238281 21.828125 12.351562 20.894531 C 11.96875 20.496094 11.917969 20.515625 11.609375 20.953125 C 11.007812 21.800781 10.789062 22.78125 10.625 23.773438 C 10.480469 24.632812 10.117188 25.359375 9.578125 26.019531 C 8.324219 27.558594 7.214844 29.195312 6.378906 31.007812 C 6.242188 31.304688 6.027344 31.539062 5.746094 31.710938 C 5.332031 31.96875 4.921875 32.222656 4.554688 32.550781 C 4.300781 32.777344 3.976562 32.792969 3.652344 32.789062 C 3.019531 32.785156 3.023438 32.789062 2.96875 33.402344 C 2.953125 33.570312 2.929688 33.738281 2.882812 33.898438 C 2.828125 34.074219 2.742188 34.253906 2.519531 34.238281 C 2.285156 34.222656 2.234375 34.027344 2.222656 33.84375 C 2.207031 33.527344 2.21875 33.210938 2.21875 32.855469 C 1.894531 32.921875 1.757812 33.175781 1.527344 33.257812 C 1.414062 33.300781 1.285156 33.386719 1.183594 33.261719 C 1.101562 33.160156 1.144531 33.023438 1.214844 32.949219 C 2.035156 32.121094 2.582031 30.960938 3.808594 30.613281 C 4.851562 30.320312 5.367188 29.628906 5.648438 28.613281 C 5.996094 27.335938 6.265625 26.027344 6.914062 24.851562 C 7.109375 24.496094 7.308594 24.140625 7.589844 23.847656 C 8.316406 23.101562 8.722656 22.207031 8.878906 21.183594 C 8.953125 20.699219 9.085938 20.226562 9.292969 19.78125 C 9.742188 18.820312 9.875 17.777344 10.019531 16.742188 C 10.171875 15.6875 10.726562 15.03125 11.769531 14.757812 C 12.933594 14.457031 13.050781 14.230469 13.195312 12.980469 C 13.386719 11.359375 13.367188 9.722656 13.605469 8.105469 C 13.738281 7.222656 14.019531 6.402344 14.53125 5.664062 C 15.054688 4.910156 15.796875 4.613281 16.675781 4.582031 C 17.121094 4.566406 17.566406 4.585938 18.003906 4.65625 C 18.480469 4.734375 18.800781 5.03125 19.023438 5.441406 C 19.929688 7.117188 20.386719 8.882812 20.113281 10.800781 C 20.011719 11.488281 20.085938 12.167969 20.261719 12.835938 C 20.492188 13.703125 20.917969 14.019531 21.8125 14.035156 C 23.308594 14.058594 24.292969 14.714844 24.675781 16.167969 C 25.015625 17.445312 25.632812 18.527344 26.40625 19.566406 C 27.078125 20.46875 27.5625 21.46875 27.773438 22.59375 C 27.890625 23.226562 27.796875 23.820312 27.46875 24.367188 C 26.929688 25.265625 26.351562 26.136719 25.578125 26.855469 C 25.027344 27.367188 24.46875 27.878906 24.023438 28.488281 C 23.378906 29.371094 22.488281 29.445312 21.527344 29.335938 C 21.195312 29.296875 20.863281 29.277344 20.535156 29.210938 C 20.15625 29.132812 19.957031 29.316406 19.832031 29.636719 C 19.632812 30.140625 19.832031 30.605469 20.027344 31.050781 C 20.601562 32.382812 21.082031 33.75 21.527344 35.132812 C 22.070312 36.808594 22.554688 38.496094 22.71875 40.257812 C 22.796875 41.105469 22.703125 41.960938 22.820312 42.808594 C 22.835938 42.917969 22.832031 43.035156 22.867188 43.140625 C 23.480469 44.90625 23.632812 46.785156 24.300781 48.546875 C 25.050781 50.542969 25.34375 52.683594 25.992188 54.71875 C 26.464844 56.207031 26.859375 57.71875 27.09375 59.269531 C 27.148438 59.632812 27.371094 59.902344 27.652344 60.164062 M 22.296875 21.882812 C 22.085938 22.371094 21.863281 22.851562 21.667969 23.34375 C 21.285156 24.304688 20.921875 25.273438 20.695312 26.28125 C 20.640625 26.539062 20.558594 26.816406 20.78125 27.035156 C 21.238281 27.472656 22.574219 27.4375 23.015625 26.976562 C 23.902344 26.042969 24.4375 24.921875 24.777344 23.695312 C 24.875 23.347656 24.828125 23.042969 24.671875 22.730469 C 24.234375 21.839844 23.8125 20.945312 23.382812 20.050781 C 23.347656 19.976562 23.328125 19.890625 23.171875 19.859375 C 22.890625 20.507812 22.605469 21.167969 22.296875 21.882812 Z M 22.296875 21.882812 " fill-opacity="1" fill-rule="nonzero"/><g transform="matrix(1, 0, 0, 1, 3, 64)"><g clip-path="url(#51acbc0516)"><g fill="#000000" fill-opacity="1"><g transform="translate(0.714576, 7.751995)"><g><path d="M 0.40625 -0.25 C 0.582031 -0.25 0.707031 -0.285156 0.78125 -0.359375 C 0.851562 -0.429688 0.894531 -0.519531 0.90625 -0.625 C 0.914062 -0.726562 0.921875 -0.90625 0.921875 -1.15625 L 0.921875 -4.34375 C 0.921875 -4.550781 0.925781 -4.726562 0.9375 -4.875 L 0.40625 -4.84375 L 0.40625 -5.171875 C 0.914062 -5.179688 1.300781 -5.1875 1.5625 -5.1875 C 1.800781 -5.1875 1.976562 -5.1875 2.09375 -5.1875 C 2.789062 -5.175781 3.300781 -5.054688 3.625 -4.828125 C 3.945312 -4.609375 4.109375 -4.285156 4.109375 -3.859375 C 4.109375 -3.515625 4.003906 -3.207031 3.796875 -2.9375 C 3.597656 -2.664062 3.242188 -2.476562 2.734375 -2.375 C 2.816406 -2.3125 2.890625 -2.234375 2.953125 -2.140625 C 3.023438 -2.054688 3.117188 -1.921875 3.234375 -1.734375 L 3.734375 -0.953125 C 3.847656 -0.773438 3.9375 -0.640625 4 -0.546875 C 4.070312 -0.453125 4.160156 -0.378906 4.265625 -0.328125 C 4.367188 -0.273438 4.492188 -0.25 4.640625 -0.25 L 4.640625 0 L 3.703125 0 C 3.578125 -0.113281 3.46875 -0.226562 3.375 -0.34375 C 3.28125 -0.46875 3.171875 -0.628906 3.046875 -0.828125 L 2.5625 -1.609375 L 2.46875 -1.765625 C 2.382812 -1.898438 2.3125 -2.007812 2.25 -2.09375 C 2.195312 -2.175781 2.132812 -2.25 2.0625 -2.3125 C 2.019531 -2.3125 1.953125 -2.3125 1.859375 -2.3125 C 1.722656 -2.3125 1.625 -2.3125 1.5625 -2.3125 L 1.5625 -0.875 C 1.5625 -0.613281 1.550781 -0.421875 1.53125 -0.296875 L 2.0625 -0.328125 L 2.0625 0 L 0.40625 0 Z M 1.890625 -2.59375 C 2.890625 -2.59375 3.390625 -2.988281 3.390625 -3.78125 C 3.390625 -4.15625 3.28125 -4.4375 3.0625 -4.625 C 2.84375 -4.8125 2.507812 -4.90625 2.0625 -4.90625 C 1.894531 -4.90625 1.773438 -4.867188 1.703125 -4.796875 C 1.628906 -4.722656 1.585938 -4.632812 1.578125 -4.53125 C 1.566406 -4.4375 1.5625 -4.265625 1.5625 -4.015625 L 1.5625 -2.59375 C 1.707031 -2.59375 1.816406 -2.59375 1.890625 -2.59375 Z M 1.890625 -2.59375 "/></g></g></g><g fill="#000000" fill-opacity="1"><g transform="translate(9.569454, 7.751995)"><g><path d="M 0.40625 -0.25 C 0.582031 -0.25 0.707031 -0.285156 0.78125 -0.359375 C 0.851562 -0.429688 0.894531 -0.519531 0.90625 -0.625 C 0.914062 -0.726562 0.921875 -0.90625 0.921875 -1.15625 L 0.921875 -4.34375 C 0.921875 -4.550781 0.925781 -4.726562 0.9375 -4.875 L 0.40625 -4.84375 L 0.40625 -5.171875 L 3.96875 -5.171875 L 4 -3.875 L 3.75 -3.875 C 3.75 -4.28125 3.660156 -4.554688 3.484375 -4.703125 C 3.316406 -4.847656 3.070312 -4.921875 2.75 -4.921875 L 2.125 -4.90625 C 1.945312 -4.894531 1.816406 -4.859375 1.734375 -4.796875 C 1.660156 -4.734375 1.613281 -4.644531 1.59375 -4.53125 C 1.570312 -4.425781 1.5625 -4.253906 1.5625 -4.015625 L 1.5625 -2.84375 L 2.953125 -2.828125 L 2.890625 -3.46875 L 3.21875 -3.46875 L 3.21875 -1.921875 L 2.984375 -1.921875 C 2.984375 -2.097656 2.957031 -2.234375 2.90625 -2.328125 C 2.863281 -2.421875 2.796875 -2.484375 2.703125 -2.515625 C 2.617188 -2.554688 2.492188 -2.578125 2.328125 -2.578125 L 2.09375 -2.5625 L 1.5625 -2.546875 L 1.5625 -0.84375 C 1.5625 -0.59375 1.550781 -0.40625 1.53125 -0.28125 L 2.953125 -0.296875 C 3.296875 -0.296875 3.554688 -0.378906 3.734375 -0.546875 C 3.921875 -0.722656 4.015625 -1.019531 4.015625 -1.4375 L 4.265625 -1.4375 L 4.21875 0 L 0.40625 0 Z M 0.40625 -0.25 "/></g></g></g><g fill="#000000" fill-opacity="1"><g transform="translate(18.379984, 7.751995)"><g><path d="M 1.234375 -4.1875 L 1.25 -1.03125 C 1.25 -0.695312 1.242188 -0.453125 1.234375 -0.296875 L 1.78125 -0.328125 L 1.78125 0 L 0.421875 0 L 0.421875 -0.25 C 0.617188 -0.25 0.75 -0.300781 0.8125 -0.40625 C 0.875 -0.519531 0.90625 -0.660156 0.90625 -0.828125 L 0.921875 -4.875 L 0.421875 -4.84375 L 0.421875 -5.171875 L 1.296875 -5.171875 L 4.453125 -0.953125 L 4.46875 -4.34375 C 4.46875 -4.550781 4.472656 -4.726562 4.484375 -4.875 L 3.953125 -4.84375 L 3.953125 -5.171875 L 5.3125 -5.171875 L 5.3125 -4.921875 C 5.164062 -4.921875 5.054688 -4.894531 4.984375 -4.84375 C 4.910156 -4.789062 4.863281 -4.71875 4.84375 -4.625 C 4.820312 -4.539062 4.8125 -4.425781 4.8125 -4.28125 L 4.8125 -4.015625 L 4.796875 0.125 L 4.453125 0.125 Z M 1.234375 -4.1875 "/></g></g></g><g fill="#000000" fill-opacity="1"><g transform="translate(28.225308, 7.751995)"><g><path d="M -0.046875 -0.25 C 0.078125 -0.25 0.175781 -0.273438 0.25 -0.328125 C 0.320312 -0.378906 0.378906 -0.453125 0.421875 -0.546875 C 0.472656 -0.640625 0.53125 -0.773438 0.59375 -0.953125 L 0.671875 -1.171875 L 2.1875 -5.3125 L 2.375 -5.3125 L 4.015625 -1.109375 C 4.078125 -0.972656 4.125 -0.828125 4.15625 -0.671875 C 4.195312 -0.515625 4.21875 -0.390625 4.21875 -0.296875 L 4.71875 -0.328125 L 4.71875 0 L 3.015625 0 L 3.015625 -0.25 C 3.304688 -0.25 3.453125 -0.363281 3.453125 -0.59375 C 3.453125 -0.6875 3.429688 -0.804688 3.390625 -0.953125 L 3.125 -1.640625 L 1.203125 -1.59375 C 1.128906 -1.394531 1.046875 -1.132812 0.953125 -0.8125 C 0.898438 -0.644531 0.835938 -0.472656 0.765625 -0.296875 L 1.34375 -0.328125 L 1.34375 0 L -0.046875 0 Z M 3.015625 -1.921875 L 2.5 -3.328125 L 2.171875 -4.234375 L 2.15625 -4.234375 L 1.84375 -3.40625 L 1.4375 -2.28125 L 1.3125 -1.921875 Z M 3.015625 -1.921875 "/></g></g></g><g fill="#000000" fill-opacity="1"><g transform="translate(37.065403, 7.751995)"><g><path d="M 1.53125 -0.25 C 1.75 -0.257812 1.890625 -0.316406 1.953125 -0.421875 C 2.015625 -0.523438 2.046875 -0.691406 2.046875 -0.921875 L 2.046875 -4.90625 L 1.28125 -4.890625 C 0.976562 -4.890625 0.757812 -4.785156 0.625 -4.578125 C 0.5 -4.378906 0.4375 -4.054688 0.4375 -3.609375 L 0.15625 -3.609375 L 0.203125 -5.171875 L 4.515625 -5.171875 L 4.5625 -3.609375 L 4.28125 -3.609375 C 4.269531 -3.921875 4.238281 -4.171875 4.1875 -4.359375 C 4.132812 -4.546875 4.039062 -4.679688 3.90625 -4.765625 C 3.769531 -4.859375 3.570312 -4.90625 3.3125 -4.90625 L 2.6875 -4.90625 L 2.6875 -0.875 C 2.6875 -0.613281 2.675781 -0.421875 2.65625 -0.296875 L 3.28125 -0.328125 L 3.28125 0 L 1.53125 0 Z M 1.53125 -0.25 "/></g></g></g><g fill="#000000" fill-opacity="1"><g transform="translate(46.008977, 7.751995)"><g><path d="M -0.046875 -0.25 C 0.078125 -0.25 0.175781 -0.273438 0.25 -0.328125 C 0.320312 -0.378906 0.378906 -0.453125 0.421875 -0.546875 C 0.472656 -0.640625 0.53125 -0.773438 0.59375 -0.953125 L 0.671875 -1.171875 L 2.1875 -5.3125 L 2.375 -5.3125 L 4.015625 -1.109375 C 4.078125 -0.972656 4.125 -0.828125 4.15625 -0.671875 C 4.195312 -0.515625 4.21875 -0.390625 4.21875 -0.296875 L 4.71875 -0.328125 L 4.71875 0 L 3.015625 0 L 3.015625 -0.25 C 3.304688 -0.25 3.453125 -0.363281 3.453125 -0.59375 C 3.453125 -0.6875 3.429688 -0.804688 3.390625 -0.953125 L 3.125 -1.640625 L 1.203125 -1.59375 C 1.128906 -1.394531 1.046875 -1.132812 0.953125 -0.8125 C 0.898438 -0.644531 0.835938 -0.472656 0.765625 -0.296875 L 1.34375 -0.328125 L 1.34375 0 L -0.046875 0 Z M 3.015625 -1.921875 L 2.5 -3.328125 L 2.171875 -4.234375 L 2.15625 -4.234375 L 1.84375 -3.40625 L 1.4375 -2.28125 L 1.3125 -1.921875 Z M 3.015625 -1.921875 "/></g></g></g><g fill="#000000" fill-opacity="1"><g transform="translate(54.849071, 7.751995)"><g/></g></g><g fill="#000000" fill-opacity="1"><g transform="translate(61.006098, 7.751995)"><g><path d="M 0.40625 -0.25 C 0.582031 -0.25 0.707031 -0.285156 0.78125 -0.359375 C 0.851562 -0.429688 0.894531 -0.519531 0.90625 -0.625 C 0.914062 -0.726562 0.921875 -0.90625 0.921875 -1.15625 L 0.921875 -4.34375 C 0.921875 -4.550781 0.925781 -4.726562 0.9375 -4.875 L 0.40625 -4.84375 L 0.40625 -5.171875 L 2.0625 -5.171875 L 2.0625 -4.921875 C 1.894531 -4.921875 1.773438 -4.882812 1.703125 -4.8125 C 1.628906 -4.738281 1.585938 -4.648438 1.578125 -4.546875 C 1.566406 -4.441406 1.5625 -4.265625 1.5625 -4.015625 L 1.5625 -0.84375 C 1.5625 -0.59375 1.550781 -0.40625 1.53125 -0.28125 L 2.921875 -0.296875 C 3.234375 -0.296875 3.46875 -0.394531 3.625 -0.59375 C 3.78125 -0.789062 3.859375 -1.101562 3.859375 -1.53125 L 4.109375 -1.53125 L 4.078125 0 L 0.40625 0 Z M 0.40625 -0.25 "/></g></g></g><g fill="#000000" fill-opacity="1"><g transform="translate(69.491402, 7.751995)"><g><path d="M -0.046875 -0.25 C 0.078125 -0.25 0.175781 -0.273438 0.25 -0.328125 C 0.320312 -0.378906 0.378906 -0.453125 0.421875 -0.546875 C 0.472656 -0.640625 0.53125 -0.773438 0.59375 -0.953125 L 0.671875 -1.171875 L 2.1875 -5.3125 L 2.375 -5.3125 L 4.015625 -1.109375 C 4.078125 -0.972656 4.125 -0.828125 4.15625 -0.671875 C 4.195312 -0.515625 4.21875 -0.390625 4.21875 -0.296875 L 4.71875 -0.328125 L 4.71875 0 L 3.015625 0 L 3.015625 -0.25 C 3.304688 -0.25 3.453125 -0.363281 3.453125 -0.59375 C 3.453125 -0.6875 3.429688 -0.804688 3.390625 -0.953125 L 3.125 -1.640625 L 1.203125 -1.59375 C 1.128906 -1.394531 1.046875 -1.132812 0.953125 -0.8125 C 0.898438 -0.644531 0.835938 -0.472656 0.765625 -0.296875 L 1.34375 -0.328125 L 1.34375 0 L -0.046875 0 Z M 3.015625 -1.921875 L 2.5 -3.328125 L 2.171875 -4.234375 L 2.15625 -4.234375 L 1.84375 -3.40625 L 1.4375 -2.28125 L 1.3125 -1.921875 Z M 3.015625 -1.921875 "/></g></g></g><g fill="#000000" fill-opacity="1"><g transform="translate(78.331505, 7.751995)"><g><path d="M 0.40625 -0.25 C 0.582031 -0.25 0.707031 -0.285156 0.78125 -0.359375 C 0.851562 -0.429688 0.894531 -0.519531 0.90625 -0.625 C 0.914062 -0.726562 0.921875 -0.90625 0.921875 -1.15625 L 0.921875 -4.34375 C 0.921875 -4.550781 0.925781 -4.726562 0.9375 -4.875 L 0.40625 -4.84375 L 0.40625 -5.171875 L 2.15625 -5.1875 C 3.082031 -5.1875 3.816406 -4.96875 4.359375 -4.53125 C 4.898438 -4.09375 5.171875 -3.441406 5.171875 -2.578125 C 5.171875 -2.117188 5.0625 -1.691406 4.84375 -1.296875 C 4.625 -0.898438 4.300781 -0.582031 3.875 -0.34375 C 3.457031 -0.113281 2.945312 0 2.34375 0 L 0.40625 0 Z M 2.328125 -0.28125 C 2.742188 -0.28125 3.109375 -0.378906 3.421875 -0.578125 C 3.742188 -0.785156 3.992188 -1.066406 4.171875 -1.421875 C 4.347656 -1.773438 4.4375 -2.171875 4.4375 -2.609375 C 4.4375 -3.328125 4.238281 -3.890625 3.84375 -4.296875 C 3.457031 -4.703125 2.863281 -4.90625 2.0625 -4.90625 C 1.894531 -4.90625 1.773438 -4.867188 1.703125 -4.796875 C 1.628906 -4.734375 1.585938 -4.648438 1.578125 -4.546875 C 1.566406 -4.441406 1.5625 -4.265625 1.5625 -4.015625 L 1.5625 -0.875 C 1.5625 -0.613281 1.550781 -0.421875 1.53125 -0.296875 C 1.707031 -0.285156 1.972656 -0.28125 2.328125 -0.28125 Z M 2.328125 -0.28125 "/></g></g></g><g fill="#000000" fill-opacity="1"><g transform="translate(88.051168, 7.751995)"><g><path d="M 0.40625 -0.25 C 0.582031 -0.25 0.707031 -0.285156 0.78125 -0.359375 C 0.851562 -0.429688 0.894531 -0.519531 0.90625 -0.625 C 0.914062 -0.726562 0.921875 -0.90625 0.921875 -1.15625 L 0.921875 -4.34375 C 0.921875 -4.550781 0.925781 -4.726562 0.9375 -4.875 L 0.40625 -4.84375 L 0.40625 -5.171875 L 2.0625 -5.171875 L 2.0625 -4.921875 C 1.894531 -4.921875 1.773438 -4.882812 1.703125 -4.8125 C 1.628906 -4.738281 1.585938 -4.648438 1.578125 -4.546875 C 1.566406 -4.441406 1.5625 -4.265625 1.5625 -4.015625 L 1.5625 -0.875 C 1.5625 -0.613281 1.550781 -0.421875 1.53125 -0.296875 L 2.0625 -0.328125 L 2.0625 0 L 0.40625 0 Z M 0.40625 -0.25 "/></g></g></g><g fill="#000000" fill-opacity="1"><g transform="translate(94.740367, 7.751995)"><g><path d="M 0.40625 -0.25 C 0.582031 -0.25 0.707031 -0.285156 0.78125 -0.359375 C 0.851562 -0.429688 0.894531 -0.519531 0.90625 -0.625 C 0.914062 -0.726562 0.921875 -0.90625 0.921875 -1.15625 L 0.921875 -4.34375 C 0.921875 -4.550781 0.925781 -4.726562 0.9375 -4.875 L 0.40625 -4.84375 L 0.40625 -5.171875 L 3.96875 -5.171875 L 4 -3.875 L 3.75 -3.875 C 3.75 -4.28125 3.660156 -4.554688 3.484375 -4.703125 C 3.316406 -4.847656 3.070312 -4.921875 2.75 -4.921875 L 2.125 -4.90625 C 1.945312 -4.894531 1.816406 -4.859375 1.734375 -4.796875 C 1.660156 -4.734375 1.613281 -4.644531 1.59375 -4.53125 C 1.570312 -4.425781 1.5625 -4.253906 1.5625 -4.015625 L 1.5625 -2.84375 L 2.953125 -2.828125 L 2.890625 -3.46875 L 3.21875 -3.46875 L 3.21875 -1.921875 L 2.984375 -1.921875 C 2.984375 -2.097656 2.957031 -2.234375 2.90625 -2.328125 C 2.863281 -2.421875 2.796875 -2.484375 2.703125 -2.515625 C 2.617188 -2.554688 2.492188 -2.578125 2.328125 -2.578125 L 2.09375 -2.5625 L 1.5625 -2.546875 L 1.5625 -0.84375 C 1.5625 -0.59375 1.550781 -0.40625 1.53125 -0.28125 L 2.953125 -0.296875 C 3.296875 -0.296875 3.554688 -0.378906 3.734375 -0.546875 C 3.921875 -0.722656 4.015625 -1.019531 4.015625 -1.4375 L 4.265625 -1.4375 L 4.21875 0 L 0.40625 0 Z M 0.40625 -0.25 "/></g></g></g><g fill="#000000" fill-opacity="1"><g transform="translate(103.550902, 7.751995)"><g><path d="M 2.140625 0.125 C 1.898438 0.125 1.664062 0.0859375 1.4375 0.015625 C 1.207031 -0.046875 1.003906 -0.140625 0.828125 -0.265625 L 0.859375 0.0625 L 0.46875 0.0625 L 0.421875 -1.515625 L 0.71875 -1.515625 C 0.738281 -1.085938 0.878906 -0.757812 1.140625 -0.53125 C 1.410156 -0.300781 1.753906 -0.1875 2.171875 -0.1875 C 2.460938 -0.1875 2.710938 -0.269531 2.921875 -0.4375 C 3.128906 -0.601562 3.234375 -0.828125 3.234375 -1.109375 C 3.234375 -1.328125 3.171875 -1.507812 3.046875 -1.65625 C 2.929688 -1.8125 2.789062 -1.9375 2.625 -2.03125 C 2.457031 -2.132812 2.226562 -2.253906 1.9375 -2.390625 C 1.601562 -2.546875 1.335938 -2.679688 1.140625 -2.796875 C 0.953125 -2.921875 0.785156 -3.078125 0.640625 -3.265625 C 0.503906 -3.460938 0.4375 -3.703125 0.4375 -3.984375 C 0.4375 -4.179688 0.484375 -4.378906 0.578125 -4.578125 C 0.671875 -4.773438 0.828125 -4.941406 1.046875 -5.078125 C 1.273438 -5.222656 1.570312 -5.296875 1.9375 -5.296875 C 2.164062 -5.296875 2.390625 -5.265625 2.609375 -5.203125 C 2.835938 -5.148438 3.046875 -5.054688 3.234375 -4.921875 L 3.203125 -5.234375 L 3.578125 -5.234375 L 3.578125 -3.609375 L 3.3125 -3.609375 C 3.289062 -3.992188 3.164062 -4.320312 2.9375 -4.59375 C 2.707031 -4.863281 2.394531 -5 2 -5 C 1.695312 -5 1.460938 -4.914062 1.296875 -4.75 C 1.128906 -4.582031 1.046875 -4.375 1.046875 -4.125 C 1.046875 -3.925781 1.101562 -3.753906 1.21875 -3.609375 C 1.332031 -3.472656 1.46875 -3.359375 1.625 -3.265625 C 1.789062 -3.171875 2.023438 -3.054688 2.328125 -2.921875 C 2.660156 -2.765625 2.925781 -2.625 3.125 -2.5 C 3.332031 -2.382812 3.503906 -2.222656 3.640625 -2.015625 C 3.785156 -1.816406 3.859375 -1.570312 3.859375 -1.28125 C 3.859375 -1.007812 3.789062 -0.765625 3.65625 -0.546875 C 3.519531 -0.335938 3.320312 -0.171875 3.0625 -0.046875 C 2.800781 0.0664062 2.492188 0.125 2.140625 0.125 Z M 2.140625 0.125 "/></g></g></g></g></g></svg>